<svg xmlns="http://www.w3.org/2000/svg" viewBox="0 0 64 64" role="img" aria-label="Core-Novaness icon">
  <defs>
    <linearGradient id="spark" x1="12" x2="52" y1="10" y2="54" gradientUnits="userSpaceOnUse">
      <stop offset="0" stop-color="#f3c161" />
      <stop offset="1" stop-color="#a96f18" />
    </linearGradient>
  </defs>
  <rect width="64" height="64" rx="20" fill="#0d1325" />
  <path
    d="M18 35.7C18 26.7 24.4 20 33.1 20c4.7 0 8.7 1.7 11.7 4.8l-4.4 4.2c-1.8-1.9-4.1-2.8-6.9-2.8-5 0-8.8 4.1-8.8 9.5s3.8 9.5 8.8 9.5c2.8 0 5.1-.9 6.9-2.8l4.4 4.2c-3 3.1-7 4.8-11.7 4.8C24.4 51.4 18 44.7 18 35.7Z"
    fill="url(#spark)"
  />
  <path
    d="M41.6 14 28.4 31.1h7.8L22.4 50l12.8-16.8h-7.4L41.6 14Z"
    fill="#f8f5ea"
    fill-opacity=".95"
  />
</svg>
